#!OML:ASF F:\VICON\USERDATA\INSTALL\rory3\rory3.ASF
:FULLY-SPECIFIED
:DEGREES
91
root 0.4638945857571118 18.04587566265137 14.614360256579953 9.241226504902833 -0.8805016867369846 -1.5790021416210018
lfemur -11.475592989234688 8.166173436233805 -17.519607637571507
ltibia 15.860207884435066
lfoot -8.878561612899496 5.19417389971067
ltoes -6.384903791764794
rfemur -12.269629171966027 -3.2370513535745835 20.499073048558564
rtibia 18.435172317410025
rfoot -12.906489437799483 0.004989834102920199
rtoes 13.423108994526942
lowerback -3.7894542312677597 0.13469206001505765 -0.5267979558189888
upperback 1.2318148346137883 0.0706897440368767 1.2018782455959998
thorax 4.54277829903403 0.025094021035317562 1.5656426403793307
lowerneck -11.656554351976897 -0.31268948036325533 -2.157243591594587
upperneck 28.582550848945225 -0.48300135611244105 2.2160705970618575
head 11.471290608497677 -0.19134056982170874 1.058791148766272
lclavicle -1.5352859378018796e-15 5.253563413310112e-16
lhumerus -26.195760338255162 -2.9019415894615337 88.78671652710324
lradius 20.487095541092764
lwrist 6.367758572175973
lhand -23.151388285096168 -4.837060581168839
lfingers 7.125019999999999
lthumb 3.2968518907790942 25.124776487444194
rclavicle -1.5352859378018798e-15 5.253563413310114e-16
rhumerus -25.434944694453797 -16.091110538565662 -80.26542633738656
rradius 22.745113644726874
rwrist 38.62306677411388
rhand -17.308742924653526 -26.676056714235074
rfingers 7.125019999999999
rthumb 8.937264039332552 -56.46241533496375
92
root 0.4615694124698865 18.06353866541511 14.701883645677352 9.14306486788378 -0.9223656038005652 -1.5965240531391494
lfemur -11.628777314487644 8.151797407545205 -17.489977203735478
ltibia 15.674418190920326
lfoot -8.78022246121824 5.142146705662517
ltoes -6.624537089402036
rfemur -12.381449541667081 -3.2208784742271948 20.49043252459156
rtibia 18.278607594331056
rfoot -12.824015561737793 0.020272199922976242
rtoes 13.143085842438383
lowerback -3.9090221181979556 0.10581013110366991 -0.5352085652821532
upperback 1.1405132125914694 0.038010396152221876 1.2007698640342421
thorax 4.523510008046791 0.007113334136472249 1.5555680488067012
lowerneck -11.650498130480052 -0.2839878071148583 -2.1691192632879845
upperneck 28.34996486049279 -0.42759863923361985 2.186038831533282
head 11.394508250461326 -0.17229481688542053 1.0564086767958998
lclavicle -1.6024934487157566e-15 4.343141675107707e-16
lhumerus -26.443902763415945 -2.8396930036841384 88.70503036673507
lradius 20.29556569899882
lwrist 6.041843053082754
lhand -23.16459248857508 -4.867596861207755
lfingers 7.125019999999999
lthumb 3.284108119122709 25.09708729653911
rclavicle -1.6024934487157568e-15 4.343141675107708e-16
rhumerus -25.64634516651937 -16.041040381525107 -80.2263779235553
rradius 22.76390521191128
rwrist 38.63534991628264
rhand -17.289163505491263 -26.657332419708087
rfingers 7.125019999999999
rthumb 8.956154174614868 -56.44476064777277
93
root 0.4622800978409796 18.04308684386555 14.479518437932406 9.08001717488918 -0.9358571754794648 -1.592120294972061
lfemur -11.51050442714239 8.183700982490308 -17.513569749383983
ltibia 15.546207581109634
lfoot -8.85701066962442 5.096036495364736
ltoes -6.668749719723717
rfemur -12.290977278980913 -3.21624510221256 20.469782801044808
rtibia 18.138739838456615
rfoot -12.86609989037762 0.0006572127828006202
rtoes 13.247866522998542
lowerback -3.9929829970634767 0.10285692407474886 -0.5355638357535698
upperback 1.0790543853058958 0.03520784787635567 1.2039612099662096
thorax 4.518775017301615 0.005841331688268447 1.5528494697571293
lowerneck -11.631230482747956 -0.25478603123274457 -2.1638154764294315
upperneck 28.139513411174995 -0.36912751013484135 2.1265660534875694
head 11.32334113579651 -0.1543738541220482 1.0426245748388656
lclavicle -1.6299304224206538e-15 3.930022958523598e-16
lhumerus -26.71787505330392 -2.779181755445368 88.57439900986107
lradius 20.020926600236198
lwrist 5.635342318046693
lhand -23.082759375453396 -4.762851203322419
lfingers 7.125019999999999
lthumb 3.3631369295424043 25.199693314807377
rclavicle -1.6299304224206538e-15 3.930022958523599e-16
rhumerus -25.746420006171302 -16.485808601067916 -80.0576345524808
rradius 22.54839441952277
rwrist 38.692358438130924
rhand -17.254948065025413 -26.63070243994865
rfingers 7.125019999999999
rthumb 8.989161665797504 -56.41506206845764
94
root 0.4586901733153622 18.063249934383837 14.383674569352547 8.984032052217065 -0.9820232241946782 -1.620401056741857
lfemur -11.659458736397417 8.166502841679105 -17.488012734875483
ltibia 15.497297559408619
lfoot -8.83020150901059 5.0974571718960675
ltoes -6.902938373820498
rfemur -12.413416312670634 -3.1470344137546276 20.469434139213455
rtibia 18.071249552844723
rfoot -12.843036647948535 -0.16316463957114724
rtoes 13.013139555715446
lowerback -4.073003200404009 0.09026320241294786 -0.5091617084253429
upperback 1.0024473705140013 0.015727300429839636 1.2150763374997977
thorax 4.508317644800075 -0.0026448294175859532 1.542041567398212
lowerneck -11.666277146570469 -0.2269224579071311 -2.1774827072783434
upperneck 27.842672960164624 -0.3103927467332061 2.0917260964203432
head 11.229459198180308 -0.1354423512188586 1.038969785303956
lclavicle -1.7021886640697439e-15 3.0625704774666843e-16
lhumerus -26.950427319772615 -2.608644014873679 88.42611188580443
lradius 19.65094482818159
lwrist 4.843971872605968
lhand -23.046496489966046 -4.768627451003916
lfingers 7.125019999999999
lthumb 3.3981410147443483 25.19403387068585
rclavicle -1.7021886640697439e-15 3.0625704774666843e-16
rhumerus -25.94950607934755 -16.56428943347298 -79.97505647229131
rradius 22.346797478499184
rwrist 38.79260461872326
rhand -17.197546933552058 -26.61798130039308
rfingers 7.125019999999999
rthumb 9.044543643161859 -56.40183959969785
